<svg width="33" height="33" viewBox="0 0 33 33" fill="none" xmlns="http://www.w3.org/2000/svg">
<path id="Vector" d="M1.83333 0.125H29.1667C29.6197 0.125 30.0543 0.304985 30.3746 0.625359C30.695 0.945734 30.875 1.38026 30.875 1.83333V10.375C30.875 10.8281 30.695 11.2626 30.3746 11.583C30.0543 11.9033 29.6197 12.0833 29.1667 12.0833H1.83333C1.38026 12.0833 0.945734 11.9033 0.625359 11.583C0.304985 11.2626 0.125 10.8281 0.125 10.375V1.83333C0.125 1.38026 0.304985 0.945734 0.625359 0.625359C0.945734 0.304985 1.38026 0.125 1.83333 0.125ZM5.25 15.5H15.5C15.9531 15.5 16.3876 15.68 16.708 16.0004C17.0284 16.3207 17.2083 16.7553 17.2083 17.2083V22.3333H18.9167V32.5833H12.0833V22.3333H13.7917V18.9167H3.54167C3.08859 18.9167 2.65407 18.7367 2.33369 18.4163C2.01332 18.0959 1.83333 17.6614 1.83333 17.2083V13.7917H5.25V15.5ZM25.2922 18.4588L28.3125 15.4385L31.3328 18.4588C31.93 19.0562 32.3367 19.8172 32.5014 20.6456C32.6661 21.474 32.5814 22.3327 32.2581 23.113C31.9348 23.8933 31.3874 24.5603 30.6851 25.0295C29.9828 25.4988 29.1571 25.7492 28.3125 25.7492C27.4679 25.7492 26.6422 25.4988 25.9399 25.0295C25.2376 24.5603 24.6902 23.8933 24.3669 23.113C24.0436 22.3327 23.959 21.474 24.1236 20.6456C24.2883 19.8172 24.695 19.0562 25.2922 18.4588Z" fill="#1F252A"/>
</svg>
