<svg width="32" height="30" viewBox="0 0 32 30" fill="none" xmlns="http://www.w3.org/2000/svg">
<path d="M24.1641 0.453125C24.1641 0.289844 24.0305 0.15625 23.8672 0.15625H8.13281C7.96953 0.15625 7.83594 0.289844 7.83594 0.453125V5.94531H24.1641V0.453125ZM28.6172 8.32031H3.38281C1.74258 8.32031 0.414062 9.64883 0.414062 11.2891V23.4609C0.414062 24.1178 0.944727 24.6484 1.60156 24.6484H7.83594V29.5469C7.83594 29.7102 7.96953 29.8438 8.13281 29.8438H23.8672C24.0305 29.8438 24.1641 29.7102 24.1641 29.5469V24.6484H30.3984C31.0553 24.6484 31.5859 24.1178 31.5859 23.4609V11.2891C31.5859 9.64883 30.2574 8.32031 28.6172 8.32031ZM21.6406 27.3203H10.3594V17.0781H21.6406V27.3203ZM27.7266 13.9609C27.7266 14.1242 27.593 14.2578 27.4297 14.2578H25.9453C25.782 14.2578 25.6484 14.1242 25.6484 13.9609V12.4766C25.6484 12.3133 25.782 12.1797 25.9453 12.1797H27.4297C27.593 12.1797 27.7266 12.3133 27.7266 12.4766V13.9609Z" fill="#1F252A"/>
</svg>
